<svg xmlns="http://www.w3.org/2000/svg" xmlns:xlink="http://www.w3.org/1999/xlink" width="132.128" height="132.389" viewBox="0 0 132.128 132.389">
  <defs>
    <filter id="Union_57" x="36.442" y="27.732" width="59.116" height="83.62" filterUnits="userSpaceOnUse">
      <feOffset dy="3" input="SourceAlpha"/>
      <feGaussianBlur stdDeviation="3" result="blur"/>
      <feFlood flood-opacity="0.161"/>
      <feComposite operator="in" in2="blur"/>
      <feComposite in="SourceGraphic"/>
    </filter>
  </defs>
  <g id="Icon-voter-05-Circle-Error" transform="translate(-755.451 -875.33)">
    <g id="Group_10839" data-name="Group 10839">
      <circle id="Ellipse_793" data-name="Ellipse 793" cx="66.064" cy="66.064" r="66.064" transform="translate(755.451 875.33)" fill="#a2a2a2"/>
      <g id="Group_10886" data-name="Group 10886" opacity="0.5">
        <path id="Path_8416" data-name="Path 8416" d="M794.683,927.045c-11.9,32.735,17.97,50.394-11.443,45.357,10.146,24.383,44.626,18.785,60.953,4.458,6.32-6.589,12.347-27.009,6.829-47.708C851.023,929.154,806.579,894.312,794.683,927.045Z" fill="#898989"/>
        <path id="Path_8172" data-name="Path 8172" d="M821.574,1007.719a65.764,65.764,0,0,0,36.293-10.867c-2.434-13.3-11.7-14.064-11.7-14.064H795.106s-8.736.716-11.473,12.958A65.766,65.766,0,0,0,821.574,1007.719Z" fill="#424242"/>
        <path id="Path_8174" data-name="Path 8174" d="M811.908,965.806h17.784a2.029,2.029,0,0,1,2.1,1.951h0v14.4c0,5.641-4.919,10.215-10.988,10.215h0c-6.068,0-10.987-4.573-10.987-10.215h0v-14.4a2.029,2.029,0,0,1,2.1-1.951h-.009Z" fill="#b0b0b0"/>
        <ellipse id="Ellipse_794" data-name="Ellipse 794" cx="30.391" cy="33.052" rx="30.391" ry="33.052" transform="translate(791.986 905.787)" fill="#898989"/>
        <path id="Path_8175" data-name="Path 8175" d="M809.853,976.36a24.6,24.6,0,0,0,21.981.082v-3.551H809.853Z" opacity="0.1" style="isolation: isolate"/>
        <ellipse id="Ellipse_795" data-name="Ellipse 795" cx="24.287" cy="29.605" rx="24.287" ry="29.605" transform="translate(796.588 918.094)" fill="#bbb"/>
        <path id="Path_8177" data-name="Path 8177" d="M800.719,924.807s15.6,26.4,47.378,8.832l-7.661-10.8-14.341-5.426Z" opacity="0.1" style="isolation: isolate"/>
        <path id="Path_8178" data-name="Path 8178" d="M800.02,922.622s12.34,25.042,47.172,10.483a93.98,93.98,0,0,0-9.328-13.337c-5.072-5.816-7.615-10.249-19.4-8.071A32.353,32.353,0,0,0,800.02,922.622Z" fill="#898989"/>
      </g>
    </g>
    <g transform="matrix(1, 0, 0, 1, 755.45, 875.33)" filter="url(#Union_57)">
      <path id="Union_57-2" data-name="Union 57" d="M16149.371,3690.923a6.208,6.208,0,1,1,6.208,6.207A6.206,6.206,0,0,1,16149.371,3690.923Zm1.291-15.2c0-8.838,5.729-12.906,9.91-15.874,3.824-2.72,5.667-4.177,5.667-7.653,0-5.822-3.934-9.581-10.023-9.581-6.873,0-9.946,5.01-9.946,9.975a5.036,5.036,0,1,1-10.072,0c-.008-.3-.008-.6,0-.893a19.6,19.6,0,0,1,20.019-19.182c11.644,0,20.1,8.278,20.092,19.682,0,8.854-5.729,12.922-9.914,15.894-3.819,2.712-5.659,4.169-5.659,7.632a5.036,5.036,0,1,1-10.072,0Z" transform="translate(-16090.25 -3598.28)" fill="#f5f5f5" stroke="rgba(0,0,0,0)" stroke-miterlimit="10" stroke-width="1"/>
    </g>
  </g>
</svg>
