<svg xmlns="http://www.w3.org/2000/svg" xmlns:xlink="http://www.w3.org/1999/xlink" width="132.128" height="132.391" viewBox="0 0 132.128 132.391">
  <defs>
    <filter id="Union_60" x="36.441" y="27.732" width="59.116" height="83.62" filterUnits="userSpaceOnUse">
      <feOffset dy="3" input="SourceAlpha"/>
      <feGaussianBlur stdDeviation="3" result="blur"/>
      <feFlood flood-opacity="0.161"/>
      <feComposite operator="in" in2="blur"/>
      <feComposite in="SourceGraphic"/>
    </filter>
  </defs>
  <g id="Icon-voter-08-Circle-Error" transform="translate(-1184.679 -875.33)">
    <g id="Group_10836" data-name="Group 10836">
      <circle id="Ellipse_829" data-name="Ellipse 829" cx="66.064" cy="66.064" r="66.064" transform="translate(1184.679 875.33)" fill="#a2a2a2"/>
      <g id="Group_10889" data-name="Group 10889" opacity="0.5">
        <path id="Path_8218" data-name="Path 8218" d="M1287.089,944.053c0,24.561-15.788,36.646-36.293,36.646s-37.947-12.085-37.947-36.646,16.621-44.468,37.12-44.468S1287.089,919.473,1287.089,944.053Z" fill="#333"/>
        <path id="Path_8219" data-name="Path 8219" d="M1250.8,1007.72a65.766,65.766,0,0,0,36.322-10.867c-2.434-13.3-11.7-14.064-11.7-14.064h-51.085s-8.736.716-11.473,12.958A65.768,65.768,0,0,0,1250.8,1007.72Z" fill="#818181"/>
        <path id="Path_8221" data-name="Path 8221" d="M1240.744,965.808H1259.3a2.08,2.08,0,0,1,2.189,1.951v14.4c0,5.641-5.132,10.215-11.463,10.215H1250c-6.331,0-11.463-4.573-11.463-10.215v-14.4a2.08,2.08,0,0,1,2.189-1.951Z" fill="#bbb"/>
        <path id="Path_8220" data-name="Path 8220" d="M1238.521,966.547h23.02v16.347c.011,5.642-5.132,10.222-11.487,10.232h-.046c-6.355,0-11.506-4.573-11.506-10.215V966.547Z" opacity="0.1" style="isolation: isolate"/>
        <path id="Path_8222" data-name="Path 8222" d="M1238.609,974.281a36.807,36.807,0,0,0,22.932.058v-2.51h-22.932Z" opacity="0.1" style="isolation: isolate"/>
        <ellipse id="Ellipse_830" data-name="Ellipse 830" cx="28.287" cy="31.787" rx="28.287" ry="31.787" transform="translate(1221.816 912.069)" fill="#ababab"/>
        <path id="Path_8223" data-name="Path 8223" d="M1216.348,940.923s18.24-2.265,32.03-20.362c0,0,18.24,20.553,30.947,18.288,0,0,7.367-7.922,0-15.838s-13.08-17.912-22.84-16.595-21.74,1.884-26.894,6.6S1216.348,940.923,1216.348,940.923Z" opacity="0.1" style="isolation: isolate"/>
        <path id="Path_8224" data-name="Path 8224" d="M1216.348,936.909a53.218,53.218,0,0,0,32.03-18.981s18.24,19.16,30.947,17.049c0,0,7.367-7.385,0-14.765s-13.08-16.7-22.84-15.471-21.717,1.734-26.871,6.179S1216.348,936.909,1216.348,936.909Z" fill="#333"/>
      </g>
    </g>
    <g transform="matrix(1, 0, 0, 1, 1184.68, 875.33)" filter="url(#Union_60)">
      <path id="Union_60-2" data-name="Union 60" d="M16149.371,3690.923a6.208,6.208,0,1,1,6.208,6.207A6.206,6.206,0,0,1,16149.371,3690.923Zm1.291-15.2c0-8.838,5.729-12.906,9.91-15.874,3.824-2.72,5.667-4.177,5.667-7.653,0-5.822-3.934-9.581-10.023-9.581-6.873,0-9.946,5.01-9.946,9.975a5.036,5.036,0,1,1-10.072,0c-.008-.3-.008-.6,0-.893a19.6,19.6,0,0,1,20.019-19.182c11.644,0,20.1,8.278,20.092,19.682,0,8.854-5.729,12.922-9.914,15.894-3.819,2.712-5.659,4.169-5.659,7.632a5.036,5.036,0,1,1-10.072,0Z" transform="translate(-16090.25 -3598.28)" fill="#f5f5f5" stroke="rgba(0,0,0,0)" stroke-miterlimit="10" stroke-width="1"/>
    </g>
  </g>
</svg>
