<svg xmlns="http://www.w3.org/2000/svg" xmlns:xlink="http://www.w3.org/1999/xlink" width="132.128" height="132.396" viewBox="0 0 132.128 132.396">
  <defs>
    <filter id="Union_55" x="36.441" y="27.733" width="59.116" height="83.62" filterUnits="userSpaceOnUse">
      <feOffset dy="3" input="SourceAlpha"/>
      <feGaussianBlur stdDeviation="3" result="blur"/>
      <feFlood flood-opacity="0.161"/>
      <feComposite operator="in" in2="blur"/>
      <feComposite in="SourceGraphic"/>
    </filter>
  </defs>
  <g id="Icon-voter-03-Circle-Error" transform="translate(-469.465 -875.405)">
    <g id="Group_10831" data-name="Group 10831">
      <circle id="Ellipse_807" data-name="Ellipse 807" cx="66.064" cy="66.064" r="66.064" transform="translate(469.465 875.405)" fill="#a2a2a2"/>
      <g id="Group_10891" data-name="Group 10891" opacity="0.5">
        <path id="Path_8189" data-name="Path 8189" d="M535.587,1007.8A65.764,65.764,0,0,0,571.9,996.934c-2.44-13.307-11.7-14.07-11.7-14.07h-51.08s-8.735.716-11.473,12.958A65.768,65.768,0,0,0,535.587,1007.8Z" fill="#777"/>
        <circle id="Ellipse_808" data-name="Ellipse 808" cx="31.891" cy="31.891" r="31.891" transform="translate(503.003 908.187)" fill="#454545"/>
        <path id="Path_8191" data-name="Path 8191" d="M525.524,965.882h18.547a2.079,2.079,0,0,1,2.189,1.951v14.4c0,5.641-5.13,10.215-11.459,10.215h0c-6.329,0-11.459-4.573-11.459-10.215v-14.4a2.079,2.079,0,0,1,2.188-1.951Z" fill="#a4a4a4"/>
        <path id="Path_8190" data-name="Path 8190" d="M523.342,966.639h22.947v16.347c.011,5.641-5.116,10.222-11.451,10.232h-.02c-6.335,0-11.47-4.573-11.47-10.215V966.639Z" opacity="0.1" style="isolation: isolate"/>
        <path id="Path_8192" data-name="Path 8192" d="M524.621,974.356a29.411,29.411,0,0,0,20.435.058V971.9H524.621Z" opacity="0.1" style="isolation: isolate"/>
        <ellipse id="Ellipse_809" data-name="Ellipse 809" cx="28.287" cy="29.287" rx="28.287" ry="29.287" transform="translate(506.606 917.149)" fill="#b0b0b0"/>
        <path id="Path_8193" data-name="Path 8193" d="M514.033,920.237s12.34,26.524,47.172,11.1L553.1,917.872l-14.367-5.463Z" opacity="0.2" style="isolation: isolate"/>
        <path id="Path_8194" data-name="Path 8194" d="M514.033,919.432s12.34,25.042,47.172,10.483L553.1,917.2l-14.367-5.16Z" fill="#454545"/>
        <path id="Path_8417" data-name="Path 8417" d="M546.26,979.37a29.414,29.414,0,0,1-22.918.074V976.26H546.26Z" opacity="0.1" style="isolation: isolate"/>
        <path id="Path_8195" data-name="Path 8195" d="M513.923,917.737a16.921,16.921,0,0,1,4.193-6.82c5.76-5.7,15.206-6.9,20.051-13.4a3.792,3.792,0,0,1-1.407,5.174,3.6,3.6,0,0,1-.34.172c4.659-.029,10.022-.437,12.643-4.257a8.685,8.685,0,0,1-1.462,9.166c4.112.186,8.5,2.976,8.771,7.087.175,2.737-1.537,5.329-3.791,6.9a20.87,20.87,0,0,1-7.647,2.859C537.119,926.374,508.821,933.6,513.923,917.737Z" fill="#454545"/>
        <path id="Path_8196" data-name="Path 8196" d="M565.289,946.693h-.81l-15.794,15.3c-15.222-7.748-26.389,0-26.389,0l-16.562-14.662-1.668.225c.475,18.386,14.564,32.872,31.469,32.355,16.541-.505,29.72-15.212,29.76-33.209Zm-30.663,21.158c-5.955,0-9.052-1.324-9.052-2.934s3.1-2.934,9.052-2.934,9.051,1.325,9.051,2.934-3.1,2.934-9.058,2.934Z" fill="#454545"/>
      </g>
    </g>
    <g transform="matrix(1, 0, 0, 1, 469.46, 875.4)" filter="url(#Union_55)">
      <path id="Union_55-2" data-name="Union 55" d="M16149.371,3690.923a6.208,6.208,0,1,1,6.208,6.207A6.206,6.206,0,0,1,16149.371,3690.923Zm1.291-15.2c0-8.838,5.729-12.906,9.91-15.874,3.824-2.72,5.667-4.177,5.667-7.653,0-5.822-3.934-9.581-10.023-9.581-6.873,0-9.946,5.01-9.946,9.975a5.036,5.036,0,1,1-10.072,0c-.008-.3-.008-.6,0-.893a19.6,19.6,0,0,1,20.019-19.182c11.644,0,20.1,8.278,20.092,19.682,0,8.854-5.729,12.922-9.914,15.894-3.819,2.712-5.659,4.169-5.659,7.632a5.036,5.036,0,1,1-10.072,0Z" transform="translate(-16090.25 -3598.28)" fill="#f5f5f5" stroke="rgba(0,0,0,0)" stroke-miterlimit="10" stroke-width="1"/>
    </g>
  </g>
</svg>
