<svg xmlns="http://www.w3.org/2000/svg" xmlns:xlink="http://www.w3.org/1999/xlink" width="132.128" height="132.314" viewBox="0 0 132.128 132.314">
  <defs>
    <filter id="Union_53" x="36.441" y="27.733" width="59.116" height="83.62" filterUnits="userSpaceOnUse">
      <feOffset dy="3" input="SourceAlpha"/>
      <feGaussianBlur stdDeviation="3" result="blur"/>
      <feFlood flood-opacity="0.161"/>
      <feComposite operator="in" in2="blur"/>
      <feComposite in="SourceGraphic"/>
    </filter>
  </defs>
  <g id="Icon-voter-01-Circle-Error" transform="translate(-183.358 -875.405)">
    <g id="Group_10830" data-name="Group 10830">
      <circle id="Ellipse_788" data-name="Ellipse 788" cx="66.064" cy="66.064" r="66.064" transform="translate(183.358 875.405)" fill="#a2a2a2"/>
      <g id="Group_10893" data-name="Group 10893" opacity="0.5">
        <path id="Path_8167" data-name="Path 8167" d="M249.61,1007.719a65.759,65.759,0,0,0,36.317-10.867c-2.434-13.3-11.7-14.064-11.7-14.064h-51.08s-8.736.716-11.473,12.958A65.768,65.768,0,0,0,249.61,1007.719Z" fill="#525252"/>
        <path id="Path_8414" data-name="Path 8414" d="M247.838,900.959c20.818,0,32.969,17.053,32.969,38.166s-14.761,38.229-32.969,38.229-32.969-17.116-32.969-38.229S227.02,900.959,247.838,900.959Z" fill="#333"/>
        <path id="Path_8169" data-name="Path 8169" d="M239.669,965.818h18.346a2.065,2.065,0,0,1,2.165,1.951h0v14.4c0,5.641-5.075,10.215-11.335,10.215h0c-6.26,0-11.335-4.573-11.335-10.215h0v-14.4A2.066,2.066,0,0,1,239.669,965.818Z" fill="#8c8c8c"/>
        <path id="Path_8168" data-name="Path 8168" d="M237.587,966.575H260.1v16.347c0,5.641-5.039,10.215-11.254,10.215h0c-6.215,0-11.254-4.573-11.254-10.215h0V966.575Z" opacity="0.1" style="isolation: isolate"/>
        <path id="Path_8170" data-name="Path 8170" d="M237.587,976.54a24.263,24.263,0,0,0,22.6.089V972.8h-22.6Z" opacity="0.1" style="isolation: isolate"/>
        <ellipse id="Ellipse_790" data-name="Ellipse 790" cx="27.933" cy="30.376" rx="27.933" ry="30.376" transform="translate(222.459 917.426)" fill="#8c8c8c"/>
        <path id="Path_8413" data-name="Path 8413" d="M230.512,949c.451-1.288,2.8-7.738,3.977-11.858s3.14-3.181,4.149-3.039a72.571,72.571,0,0,0,23.208-.052c4.506-.763,10.545-4.009,11.955-7.662s1.411-8.558-3.014-12.119-13.456-8.961-27.2-6.426-18.741,13.95-22.239,23.483C220.762,956.972,222.672,930.016,230.512,949Z" fill="#333" opacity="0.187" style="isolation: isolate"/>
        <path id="Path_8171" data-name="Path 8171" d="M230.471,948.751c.442-1.278,3.535-13.57,4.129-15s1.948-1.2,2.933-1.063A76.131,76.131,0,0,0,261.2,932.6a22.316,22.316,0,0,0,12.2-6.952c3.107-3.505.734-9.9-3.58-13.42S256.7,903.37,243.28,905.9s-18.152,8.879-21.578,18.324c-3.208,17.875.523,24.445.9,20.692s2.261-3.7,3.01-3.087C227.893,943.69,229.038,945.216,230.471,948.751Z" fill="#333"/>
      </g>
    </g>
    <g transform="matrix(1, 0, 0, 1, 183.36, 875.4)" filter="url(#Union_53)">
      <path id="Union_53-2" data-name="Union 53" d="M16149.371,3690.923a6.208,6.208,0,1,1,6.208,6.207A6.206,6.206,0,0,1,16149.371,3690.923Zm1.291-15.2c0-8.838,5.729-12.906,9.91-15.874,3.824-2.72,5.667-4.177,5.667-7.653,0-5.822-3.934-9.581-10.023-9.581-6.873,0-9.946,5.01-9.946,9.975a5.036,5.036,0,1,1-10.072,0c-.008-.3-.008-.6,0-.893a19.6,19.6,0,0,1,20.019-19.182c11.644,0,20.1,8.278,20.092,19.682,0,8.854-5.729,12.922-9.914,15.894-3.819,2.712-5.659,4.169-5.659,7.632a5.036,5.036,0,1,1-10.072,0Z" transform="translate(-16090.25 -3598.28)" fill="#f5f5f5" stroke="rgba(0,0,0,0)" stroke-miterlimit="10" stroke-width="1"/>
    </g>
  </g>
</svg>
