<svg xmlns="http://www.w3.org/2000/svg" width="21.479" height="19.098" viewBox="0 0 21.479 19.098">
  <path id="Icon-Sidebar-Community" d="M9292.093,2567.388V2564.5a1.942,1.942,0,0,0-1.94-1.941.883.883,0,0,1,0-1.766,3.714,3.714,0,0,1,3.709,3.706v2.885a.884.884,0,0,1-1.769,0Zm-4.46,0V2564.5a1.942,1.942,0,0,0-1.94-1.941h-8.6a1.943,1.943,0,0,0-1.94,1.941v2.885a.883.883,0,1,1-1.766,0V2564.5a3.711,3.711,0,0,1,3.706-3.706h8.6a3.712,3.712,0,0,1,3.709,3.706v2.885a.884.884,0,0,1-1.769,0Zm-1.719-8.574a.884.884,0,0,1,.884-.884,2.995,2.995,0,1,0,0-5.99.883.883,0,1,1,0-1.766,4.761,4.761,0,1,1,0,9.521A.883.883,0,0,1,9285.914,2558.814Zm-9.243-3.879a4.762,4.762,0,1,1,4.761,4.76A4.766,4.766,0,0,1,9276.671,2554.936Zm1.768,0a2.994,2.994,0,1,0,2.993-2.995A3,3,0,0,0,9278.438,2554.936Z" transform="translate(-9272.882 -2549.675)" stroke="rgba(0,0,0,0)" stroke-miterlimit="10" stroke-width="1"/>
</svg>
