<svg xmlns="http://www.w3.org/2000/svg" width="24.057" height="22.96" viewBox="0 0 24.057 22.96">
  <path id="Icon-Sidebar-Delegation" d="M312.059,392.462a1.478,1.478,0,0,0-1.2-1.009l-6.511-.944-2.911-5.9a1.541,1.541,0,0,0-2.664,0l-2.913,5.9-6.511.944a1.486,1.486,0,0,0-.823,2.535l4.712,4.591-1.112,6.482a1.482,1.482,0,0,0,2.154,1.566l5.824-3.06,5.823,3.06a1.485,1.485,0,0,0,2.155-1.566l-1.112-6.482,4.714-4.593A1.48,1.48,0,0,0,312.059,392.462Zm-6.5,4.931a1.487,1.487,0,0,0-.427,1.314l1.023,5.962-5.357-2.814a1.473,1.473,0,0,0-1.381,0l-5.357,2.814,1.022-5.962a1.483,1.483,0,0,0-.427-1.314l-4.335-4.224,5.994-.871a1.484,1.484,0,0,0,1.114-.811l2.678-5.427,2.678,5.428a1.5,1.5,0,0,0,1.118.811l5.99.869Z" transform="translate(-288.077 -383.841)"/>
</svg>
