<svg xmlns="http://www.w3.org/2000/svg" width="20.638" height="19.597" viewBox="0 0 20.638 19.597">
  <path id="Icon-Sidebar-Election" d="M9275.392,2463.1a2.012,2.012,0,0,1-2.01-2.01v-14.577a2.011,2.011,0,0,1,2.01-2.01h11.027a.883.883,0,1,1,0,1.766h-11.027a.243.243,0,0,0-.242.245v14.577a.243.243,0,0,0,.242.245h14.579a.245.245,0,0,0,.245-.245v-7.673a.883.883,0,1,1,1.766,0v7.673a2.012,2.012,0,0,1-2.011,2.01Zm2.55-8.821a.883.883,0,0,1,1.25-1.248l2.472,2.475,9.847-9.847a.884.884,0,0,1,1.251,1.25l-11.1,11.094Z" transform="translate(-9272.882 -2443.998)" stroke="rgba(0,0,0,0)" stroke-miterlimit="10" stroke-width="1"/>
</svg>
