<svg xmlns="http://www.w3.org/2000/svg" width="21.198" height="19.24" viewBox="0 0 21.198 19.24">
  <path id="Icon-Sidebar-Home" d="M309.083,264.48l-9.16-9.16a1.813,1.813,0,0,0-2.5,0l-9.017,9.016a.884.884,0,0,0,1.249,1.251l.957-.957v7.982a1.448,1.448,0,0,0,1.446,1.447h3.492a1.448,1.448,0,0,0,1.446-1.447v-5.025h3.165v5.025a1.448,1.448,0,0,0,1.446,1.447h3.269a1.448,1.448,0,0,0,1.446-1.447v-8.4l1.517,1.515a.883.883,0,1,0,1.248-1.251Zm-4.531-1.977v9.789h-2.627v-5.027a1.448,1.448,0,0,0-1.446-1.446h-3.806a1.448,1.448,0,0,0-1.446,1.446v5.027h-2.851v-9.427l6.3-6.294,5.888,5.887C304.56,262.473,304.552,262.487,304.552,262.5Z" transform="translate(-288.144 -254.818)"/>
</svg>
