<svg xmlns="http://www.w3.org/2000/svg" width="22.449" height="17.984" viewBox="0 0 22.449 17.984">
  <path id="Icon-Sidebar-Membership" d="M9276.772,2532.333a2.19,2.19,0,0,1-2.188-2.188v-12.608a2.19,2.19,0,0,1,2.188-2.188h17.072a2.192,2.192,0,0,1,2.188,2.188v12.608a2.192,2.192,0,0,1-2.188,2.188Zm-.638-14.8v12.608a.638.638,0,0,0,.638.635h17.072a.635.635,0,0,0,.635-.635v-12.608a.635.635,0,0,0-.635-.635h-17.072A.638.638,0,0,0,9276.135,2517.537Zm8.645,9.817v-.163a1.768,1.768,0,0,0-1.767-1.764h-1.542a1.765,1.765,0,0,0-1.764,1.764v.163a.531.531,0,0,1-1.062,0v-.163a2.829,2.829,0,0,1,2.825-2.823h1.542a2.827,2.827,0,0,1,2.825,2.823v.163a.529.529,0,1,1-1.059,0Zm2.839-.672a.531.531,0,0,1,0-1.062h3.065a.531.531,0,1,1,0,1.062Zm-7.557-4.687a2.2,2.2,0,1,1,2.2,2.2A2.2,2.2,0,0,1,9280.062,2522Zm1.062,0a1.137,1.137,0,1,0,1.136-1.136A1.138,1.138,0,0,0,9281.123,2522Zm6.5,2.179a.53.53,0,0,1,0-1.059h4.477a.53.53,0,1,1,0,1.059Zm0-2.468a.53.53,0,0,1,0-1.059h2.82a.53.53,0,1,1,0,1.059Z" transform="translate(-9274.084 -2514.849)" stroke="rgba(0,0,0,0)" stroke-miterlimit="10" stroke-width="1"/>
</svg>
