<svg xmlns="http://www.w3.org/2000/svg" width="12.422" height="18.463" viewBox="0 0 12.422 18.463">
  <path id="EOS-Logo" d="M-386.085,299.5l-1.879-8.518a.393.393,0,0,0-.11-.216l-3.9-5.3a.392.392,0,0,0-.316-.16.392.392,0,0,0-.316.16l-3.9,5.3a.393.393,0,0,0-.109.214l-1.856,8.576a.392.392,0,0,0,.171.413l5.8,3.738a.392.392,0,0,0,.213.063.392.392,0,0,0,.212-.062l5.839-3.739a.392.392,0,0,0,.18-.337A.392.392,0,0,0-386.085,299.5Zm-10.076-6.937.592,1.855-1.6,2.81Zm4.776,6.67h-1.824l-1.508-4.725,2.424-4.253,2.429,4.228Zm2.05-3.83,2.2,3.83h-3.428Zm-2.3,4.615-.662,2.068-.66-2.068Zm-2.4-.785h-3.378l2.165-3.8Zm2.13-9.873V286.9l3.115,4.227-.753,2.35Zm-.785,0-2.354,4.131-.757-2.372,3.111-4.226Zm-1.095,10.657.777,2.436-3.778-2.436Zm2.969,0h3.038l-3.821,2.447Zm1.8-5.626.59-1.841,1.027,4.654Z" transform="translate(398.486 -285.311)" fill="#262626"/>
</svg>
