<svg xmlns="http://www.w3.org/2000/svg" width="133.628" height="144.934" viewBox="0 0 133.628 144.934">
  <g id="Icon-voter-03" transform="translate(0 1.5)">
    <g id="Group_10831" data-name="Group 10831" transform="translate(0 11.038)">
      <circle id="Ellipse_807" data-name="Ellipse 807" cx="66.064" cy="66.064" r="66.064" transform="translate(0 0)" fill="#e6e7eb"/>
      <g id="Group_10891" data-name="Group 10891" transform="translate(28.186 22.118)">
        <path id="Path_8189" data-name="Path 8189" d="M634.346,211.157a65.755,65.755,0,0,0,36.316-10.867c-2.44-13.307-11.7-14.07-11.7-14.07h-51.08s-8.735.716-11.473,12.958A65.764,65.764,0,0,0,634.346,211.157Z" transform="translate(-596.41 -100.879)" fill="#ef4444"/>
        <ellipse id="Ellipse_808" data-name="Ellipse 808" cx="31.891" cy="31.891" rx="31.891" ry="31.891" transform="translate(5.352 10.664)" fill="#72351c"/>
        <path id="Path_8191" data-name="Path 8191" d="M644.842,157.06h18.547a2.08,2.08,0,0,1,2.189,1.951v14.4c0,5.641-5.13,10.215-11.459,10.215h0c-6.329,0-11.459-4.573-11.459-10.215v-14.4a2.08,2.08,0,0,1,2.188-1.951Z" transform="translate(-616.969 -88.701)" fill="#e58e67"/>
        <path id="Path_8190" data-name="Path 8190" d="M642.68,158.36h22.947v16.347c.011,5.641-5.116,10.222-11.451,10.232h-.02c-6.335,0-11.47-4.573-11.47-10.215V158.36Z" transform="translate(-616.989 -89.244)" opacity="0.1" style="isolation: isolate"/>
        <path id="Path_8192" data-name="Path 8192" d="M642.72,169.852a29.409,29.409,0,0,0,20.435.058V167.4H642.72Z" transform="translate(-615.75 -93.019)" opacity="0.1" style="isolation: isolate"/>
        <ellipse id="Ellipse_809" data-name="Ellipse 809" cx="28.287" cy="29.287" rx="28.287" ry="29.287" transform="translate(8.955 19.626)" fill="#e89d7b"/>
        <path id="Path_8193" data-name="Path 8193" d="M624.54,73.068s12.34,26.524,47.172,11.1l-8.107-13.465L649.238,65.24Z" transform="translate(-608.158 -50.354)" opacity="0.2" style="isolation: isolate"/>
        <path id="Path_8194" data-name="Path 8194" d="M624.54,72s12.34,25.042,47.172,10.483L663.605,69.77l-14.367-5.16Z" transform="translate(-608.158 -50.091)" fill="#72351c"/>
        <path id="Path_8417" data-name="Path 8417" d="M121.168,176.72a29.41,29.41,0,0,1-22.918.074V173.61h22.918Z" transform="translate(-72.559 -94.873)" opacity="0.1" style="isolation: isolate"/>
        <path id="Path_8195" data-name="Path 8195" d="M623.912,59.894a16.921,16.921,0,0,1,4.193-6.82c5.76-5.7,15.206-6.9,20.051-13.395a3.792,3.792,0,0,1-1.407,5.174c-.11.063-.224.121-.34.172,4.659-.029,10.022-.437,12.643-4.257a8.683,8.683,0,0,1-1.462,9.166c4.112.186,8.5,2.976,8.771,7.087.175,2.737-1.537,5.329-3.791,6.9a20.843,20.843,0,0,1-7.647,2.859C647.108,68.531,618.81,75.758,623.912,59.894Z" transform="translate(-607.64 -39.68)" fill="#72351c"/>
        <path id="Path_8196" data-name="Path 8196" d="M671.323,124.11h-.81l-15.794,15.3c-15.222-7.748-26.389,0-26.389,0l-16.562-14.662-1.668.225c.475,18.386,14.564,32.872,31.469,32.355,16.541-.505,29.72-15.212,29.76-33.209ZM640.66,145.268c-5.955,0-9.052-1.324-9.052-2.934s3.1-2.934,9.052-2.934,9.051,1.325,9.051,2.934-3.1,2.934-9.058,2.934Z" transform="translate(-603.685 -74.94)" fill="#72351c"/>
      </g>
    </g>
    <g id="Component_382_82" data-name="Component 382 – 82" transform="translate(86.244)">
      <ellipse id="baf12095-0797-4180-a98d-6422936d747a" cx="22.942" cy="22.942" rx="22.942" ry="22.942" fill="#acacac" stroke="#fff" stroke-width="3"/>
      <path id="b582f34e-fd02-4670-b1d8-d23f069ed737" d="M164.665,252.068a3.113,3.113,0,0,1-1.874-.623l-.033-.025-7.06-5.4a3.137,3.137,0,1,1,3.817-4.979h0l4.573,3.506,10.805-14.1a3.136,3.136,0,0,1,4.4-.581h0l-.067.093.069-.093a3.14,3.14,0,0,1,.58,4.4l-12.71,16.574a3.139,3.139,0,0,1-2.5,1.223Z" transform="translate(-144.664 -217.675)" fill="#fff"/>
    </g>
  </g>
</svg>
