<svg xmlns="http://www.w3.org/2000/svg" width="134.07" height="144.852" viewBox="0 0 134.07 144.852">
  <g id="Icon-voter-01" transform="translate(0 1.5)">
    <g id="Group_10830" data-name="Group 10830" transform="translate(0 11.038)">
      <circle id="Ellipse_788" data-name="Ellipse 788" cx="66.064" cy="66.064" r="66.064" transform="translate(0 0)" fill="#e6e7eb"/>
      <g id="Group_10893" data-name="Group 10893" transform="translate(28.316 26.944)">
        <path id="Path_8167" data-name="Path 8167" d="M89.836,217.341a65.755,65.755,0,0,0,36.317-10.867c-2.434-13.3-11.7-14.064-11.7-14.064H63.373s-8.736.716-11.473,12.958A65.761,65.761,0,0,0,89.836,217.341Z" transform="translate(-51.9 -111.971)" fill="#057857"/>
        <path id="Path_8414" data-name="Path 8414" d="M32.969.058c20.818,0,32.969,17.053,32.969,38.166S51.177,76.453,32.969,76.453,0,59.337,0,38.224,12.151.058,32.969.058Z" transform="translate(3.195 -1.448)" fill="#333"/>
        <path id="Path_8169" data-name="Path 8169" d="M100.348,163.27h18.346a2.066,2.066,0,0,1,2.165,1.951h0v14.4c0,5.641-5.075,10.215-11.335,10.215h0c-6.26,0-11.335-4.573-11.335-10.215h0v-14.4A2.066,2.066,0,0,1,100.348,163.27Z" transform="translate(-72.353 -99.801)" fill="#be7c5e"/>
        <path id="Path_8168" data-name="Path 8168" d="M98.18,164.57h22.514v16.347c0,5.641-5.039,10.215-11.254,10.215h0c-6.215,0-11.254-4.573-11.254-10.215h0V164.57Z" transform="translate(-72.267 -100.344)" opacity="0.1" style="isolation: isolate"/>
        <path id="Path_8170" data-name="Path 8170" d="M98.25,177.345a24.262,24.262,0,0,0,22.595.089V173.61H98.25Z" transform="translate(-72.337 -103.154)" opacity="0.1" style="isolation: isolate"/>
        <ellipse id="Ellipse_790" data-name="Ellipse 790" cx="27.933" cy="30.376" rx="27.933" ry="30.376" transform="translate(10.785 15.077)" fill="#be7c5e"/>
        <path id="Path_8413" data-name="Path 8413" d="M10.673,43.535c.338-1.323,2.116-7.954,2.931-12.162s2.852-3.443,3.87-3.389a72.572,72.572,0,0,0,23.12-2.072C45.017,24.76,50.752,21,51.839,17.237S52.5,8.587,47.781,5.424,33.593-2.334,20.115,1.389,2.656,16.92,0,26.723C1.652,52.326,1.209,25.3,10.673,43.535Z" transform="matrix(0.996, 0.087, -0.087, 0.996, 11.995, 2.363)" fill="#333" opacity="0.187"/>
        <path id="Path_8171" data-name="Path 8171" d="M11.249,45.189c.329-1.311,2.341-13.829,2.808-15.307s1.836-1.369,2.83-1.315a76.156,76.156,0,0,0,23.573-2.145,22.316,22.316,0,0,0,11.552-7.989c2.791-3.763-.13-9.926-4.735-13.06s-13.844-7.685-26.995-4S2.968,11.8.376,21.51C-1.265,39.6,3.025,45.821,3.07,42.049S5,38.164,5.8,38.712C8.239,40.371,9.513,41.792,11.249,45.189Z" transform="matrix(0.996, 0.087, -0.087, 0.996, 11.525, 0.415)" fill="#333"/>
      </g>
    </g>
    <g id="Component_382_79" data-name="Component 382 – 79" transform="translate(86.686)">
      <ellipse id="baf12095-0797-4180-a98d-6422936d747a" cx="22.942" cy="22.942" rx="22.942" ry="22.942" fill="#acacac" stroke="#fff" stroke-width="3"/>
      <path id="b582f34e-fd02-4670-b1d8-d23f069ed737" d="M164.665,252.068a3.113,3.113,0,0,1-1.874-.623l-.033-.025-7.06-5.4a3.137,3.137,0,1,1,3.817-4.979h0l4.573,3.506,10.805-14.1a3.136,3.136,0,0,1,4.4-.581h0l-.067.093.069-.093a3.14,3.14,0,0,1,.58,4.4l-12.71,16.574a3.139,3.139,0,0,1-2.5,1.223Z" transform="translate(-144.664 -217.675)" fill="#fff"/>
    </g>
  </g>
</svg>
