<svg xmlns="http://www.w3.org/2000/svg" width="16.804" height="14.709" viewBox="0 0 16.804 14.709">
  <g id="Group_11953" data-name="Group 11953" transform="translate(-23.091 -30.046)">
    <g id="Group_10634" data-name="Group 10634" transform="translate(23.091 30.046)">
      <path id="Path_8144" data-name="Path 8144" d="M1246.651,252.066a5.755,5.755,0,0,0-1.671.4c-1.538.646-4.215,2.72-6.8,1.341a3.886,3.886,0,0,1-1.835-5.1h0l.835.772h0a2.438,2.438,0,0,0,1.494,2.318,2.63,2.63,0,0,0,3.273-.646,4.234,4.234,0,0,0,.783-2.346,5.413,5.413,0,0,1,2.255,1.061A4.849,4.849,0,0,1,1246.651,252.066Z" transform="translate(-1229.847 -239.559)" fill="#acacac"/>
      <path id="Path_8145" data-name="Path 8145" d="M1193.139,233.524a4.682,4.682,0,0,0,.462-1.534c.163-1.551-.445-4.727,2.144-6.107a4.621,4.621,0,0,1,5.7,1.082s0,0,0,0l-1.142.281h0a2.889,2.889,0,0,0-2.923.035,2.212,2.212,0,0,0-1.03,2.937,4.638,4.638,0,0,0,1.811,1.8,5.225,5.225,0,0,1-2.124,1.272A5.7,5.7,0,0,1,1193.139,233.524Z" transform="translate(-1193.139 -219.532)" fill="#acacac"/>
      <path id="Path_8146" data-name="Path 8146" d="M1232.813,185.153a5.154,5.154,0,0,0,1.209,1.136c1.375.905,4.661,2.008,4.661,4.766,0,2.778-2.439,3.772-3.868,4.015a0,0,0,0,1,0,0l.307-1.053h0a2.5,2.5,0,0,0,1.429-2.353,2.414,2.414,0,0,0-2.242-2.292,5.188,5.188,0,0,0-2.594.547h0a4.462,4.462,0,0,1-.132-2.332A4.748,4.748,0,0,1,1232.813,185.153Z" transform="translate(-1225.979 -185.153)" fill="#acacac"/>
    </g>
  </g>
</svg>
