<?xml version="1.0" encoding="utf-8"?>
<!-- Generator: Adobe Illustrator 26.0.2, SVG Export Plug-In . SVG Version: 6.00 Build 0)  -->
<svg version="1.1" id="Capa_1" xmlns="http://www.w3.org/2000/svg" xmlns:xlink="http://www.w3.org/1999/xlink" x="0px" y="0px"
	 viewBox="0 0 214 214" style="enable-background:new 0 0 214 214;" xml:space="preserve">
<style type="text/css">
	.st0{fill:#ACACAC;}
</style>
<g>
	<path class="st0" d="M154.4,149.1c-0.1-0.2-0.3-0.4-0.5-0.6c-0.2-0.2-0.4-0.4-0.6-0.5c-0.2-0.1-0.5-0.2-0.7-0.3
		c-0.3-0.1-0.5-0.1-0.8-0.1c-0.3,0-0.6,0-0.8,0.1c-0.3,0.1-0.5,0.2-0.7,0.3c-0.2,0.1-0.4,0.3-0.6,0.5c-0.2,0.2-0.3,0.4-0.5,0.6
		c-0.1,0.2-0.2,0.5-0.3,0.8c-0.1,0.3-0.1,0.6-0.1,0.8c0,0.4,0.1,0.8,0.2,1.2c0.2,0.4,0.4,0.7,0.6,1c0.3,0.3,0.6,0.5,1,0.7
		c0.3,0.1,0.7,0.2,1.2,0.2c0.3,0,0.6,0,0.8-0.1c0.3-0.1,0.5-0.2,0.7-0.3c0.2-0.1,0.3-0.2,0.5-0.4h-1c-0.2,0-0.3-0.1-0.3-0.2
		l-0.7-1.3l-0.1-0.1c0,0-0.1,0-0.2,0h-0.3v1.6h-1.1v-4.6h1.6c0.6,0,1.1,0.1,1.4,0.3c0.3,0.2,0.4,0.6,0.4,1c0,0.3-0.1,0.6-0.2,0.8
		c-0.2,0.2-0.4,0.4-0.7,0.5c0.1,0,0.1,0.1,0.2,0.2c0,0.1,0.1,0.1,0.2,0.2l0.9,1.5c0,0,0,0,0,0c0.2-0.2,0.4-0.4,0.5-0.6
		c0.1-0.2,0.2-0.5,0.3-0.8c0.1-0.3,0.1-0.6,0.1-0.8c0-0.2,0-0.6-0.1-0.8C154.6,149.6,154.5,149.4,154.4,149.1z"/>
	<path class="st0" d="M151.8,149.3h-0.5v1.3h0.4v-0.1c0.2,0,0.3,0,0.4,0c0.1,0,0.2-0.1,0.3-0.1c0.1-0.1,0.1-0.1,0.1-0.2
		c0-0.1,0-0.2,0-0.3c0-0.1,0-0.2,0-0.3c0-0.1-0.1-0.2-0.1-0.2c-0.1,0-0.1-0.1-0.2-0.1C152.1,149.3,152,149.3,151.8,149.3z"/>
	<path class="st0" d="M107,0C48,0,0.1,47.9,0.1,106.9c0,59,47.9,106.9,106.9,106.9s106.9-47.9,106.9-106.9C213.9,47.9,166,0,107,0z
		 M61.4,112.1c-4.6,0-9.2,0-13.8,0c0-4.3,0-8.5,0-12.8c4.6,0,9.2,0,13.8,0C61.4,103.6,61.4,107.8,61.4,112.1z M143.8,154.4
		c-23.8,0-47.5,0-71.3,0.1c0-32.4,0-64.7,0-97c23.8,0,47.5,0,71.2,0c0,5.5,0,10.9,0,16.4c-17.6,0-35.1,0-52.7,0c0,7.9,0,15.6,0,23.5
		c15.7,0,31.2,0,46.8,0c0,5.5,0,10.8,0,16.4c-15.7,0-31.2,0-46.8,0c0,8.2,0,16.1,0,24.3c17.7,0,35.2,0,52.8,0
		C143.8,143.6,143.8,148.9,143.8,154.4z M155.5,151.7c-0.1,0.3-0.2,0.6-0.4,0.9c-0.2,0.3-0.4,0.5-0.6,0.8c-0.2,0.2-0.5,0.4-0.8,0.6
		s-0.6,0.3-0.9,0.4c-0.3,0.1-0.6,0.1-1,0.1c-0.3,0-0.7,0-1-0.1c-0.3-0.1-0.6-0.2-0.9-0.4s-0.5-0.4-0.8-0.6c-0.2-0.2-0.4-0.5-0.6-0.8
		s-0.3-0.6-0.4-0.9c-0.1-0.3-0.1-0.6-0.1-1c0-0.4,0-0.7,0.1-1c0.1-0.3,0.2-0.6,0.4-0.9s0.4-0.5,0.6-0.8c0.2-0.2,0.5-0.4,0.8-0.6
		c0.3-0.2,0.6-0.3,0.9-0.4c0.3-0.1,0.6-0.1,1-0.1c0.4,0,0.7,0,1,0.1c0.3,0.1,0.6,0.2,0.9,0.4c0.3,0.2,0.5,0.4,0.8,0.6
		c0.2,0.2,0.4,0.5,0.6,0.8c0.2,0.3,0.3,0.6,0.4,0.9c0.1,0.3,0.1,0.6,0.1,1C155.6,151,155.6,151.4,155.5,151.7z"/>
</g>
</svg>
