<svg xmlns="http://www.w3.org/2000/svg" width="748" height="288" viewBox="0 0 748 288">
  <g id="EDEN-HorizontalLogo-ClearSpaceBlack" transform="translate(0.383 11.75)">
    <g id="Path_42" data-name="Path 42" transform="translate(44.049 15.252)">
      <path id="Path_95" data-name="Path 95" d="M1556.263,341.649H1450.92a11.554,11.554,0,0,1-11.2-8.742l-28.4-113.217A11.57,11.57,0,0,1,1414.09,209l81.06-86.774a11.548,11.548,0,0,1,8.438-3.664h.009a11.543,11.543,0,0,1,8.441,3.679l80.79,86.771a11.567,11.567,0,0,1,2.756,10.65l-28.115,113.223A11.544,11.544,0,0,1,1556.263,341.649Zm-96.338-23.093h87.31l24.431-98.387-68.09-73.132-68.324,73.132Z" transform="translate(-1410.982 -118.563)"/>
    </g>
    <rect id="Rectangle_26" data-name="Rectangle 26" width="748" height="288" transform="translate(-0.383 -11.75)" fill="none"/>
    <path id="Path_182" data-name="Path 182" d="M-274.593-95.763a14.81,14.81,0,0,1,1.094-5.729,13.932,13.932,0,0,1,3.026-4.57,14.11,14.11,0,0,1,4.506-3.026,14,14,0,0,1,5.536-1.094h82.654V-91.9h-77.762v16.608h67.462v18.282h-67.462v18.668h77.762v18.282h-82.011a14.55,14.55,0,0,1-5.793-1.159,15.414,15.414,0,0,1-4.7-3.09,14.474,14.474,0,0,1-3.154-4.506,13.031,13.031,0,0,1-1.159-5.407Zm110.978,14.291h18.926v43.13h70.552V-91.9h-89.478v-18.282h93.6a14.551,14.551,0,0,1,5.794,1.159,15.414,15.414,0,0,1,4.7,3.09,14.474,14.474,0,0,1,3.154,4.506,13.031,13.031,0,0,1,1.159,5.407v61.54a14.093,14.093,0,0,1-1.159,5.729,14.809,14.809,0,0,1-3.09,4.57,14.111,14.111,0,0,1-4.506,3.026,13.684,13.684,0,0,1-5.407,1.094h-94.241ZM-41.822-95.763a14.81,14.81,0,0,1,1.094-5.729,13.932,13.932,0,0,1,3.026-4.57,14.111,14.111,0,0,1,4.506-3.026,14,14,0,0,1,5.536-1.094H54.994V-91.9H-22.768v16.608H44.695v18.282H-22.768v18.668H54.994v18.282H-27.016A14.551,14.551,0,0,1-32.81-21.22a15.414,15.414,0,0,1-4.7-3.09,14.474,14.474,0,0,1-3.154-4.506,13.031,13.031,0,0,1-1.159-5.407ZM69.156-93.7a30.194,30.194,0,0,1,.708-6.63A16.7,16.7,0,0,1,72.246-106a12.24,12.24,0,0,1,4.377-3.991,13.5,13.5,0,0,1,6.566-1.481,15.543,15.543,0,0,1,7.467,1.867,27.265,27.265,0,0,1,6.695,5.214l58.45,60.9v-66.69h18.926V-36.54a27.785,27.785,0,0,1-.772,6.63,17.715,17.715,0,0,1-2.446,5.665,12.406,12.406,0,0,1-4.313,3.991,13.124,13.124,0,0,1-6.5,1.481,15.143,15.143,0,0,1-7.725-1.867,29.874,29.874,0,0,1-6.437-5.214L88.082-86.622v66.561H69.156Z" transform="translate(534.687 197.372)"/>
  </g>
</svg>
