<svg xmlns="http://www.w3.org/2000/svg" width="748" height="288" viewBox="0 0 748 288">
  <g id="EdenOnEOS-HorizontalLogo-ClearSpaceBlack" transform="translate(0.383 11.75)">
    <g id="Path_42" data-name="Path 42" transform="translate(44.049 15.252)">
      <path id="Path_95" data-name="Path 95" d="M1556.263,341.649H1450.92a11.554,11.554,0,0,1-11.2-8.742l-28.4-113.217A11.57,11.57,0,0,1,1414.09,209l81.06-86.774a11.548,11.548,0,0,1,8.438-3.664h.009a11.543,11.543,0,0,1,8.441,3.679l80.79,86.771a11.567,11.567,0,0,1,2.756,10.65l-28.115,113.223A11.544,11.544,0,0,1,1556.263,341.649Zm-96.338-23.093h87.31l24.431-98.387-68.09-73.132-68.324,73.132Z" transform="translate(-1410.982 -118.563)"/>
    </g>
    <rect id="Rectangle_26" data-name="Rectangle 26" width="748" height="288" transform="translate(-0.383 -11.75)" fill="none"/>
    <path id="Path_182" data-name="Path 182" d="M-274.593-95.763a14.81,14.81,0,0,1,1.094-5.729,13.932,13.932,0,0,1,3.026-4.57,14.11,14.11,0,0,1,4.506-3.026,14,14,0,0,1,5.536-1.094h82.654V-91.9h-77.762v16.608h67.462v18.282h-67.462v18.668h77.762v18.282h-82.011a14.55,14.55,0,0,1-5.793-1.159,15.414,15.414,0,0,1-4.7-3.09,14.474,14.474,0,0,1-3.154-4.506,13.031,13.031,0,0,1-1.159-5.407Zm110.978,14.291h18.926v43.13h70.552V-91.9h-89.478v-18.282h93.6a14.551,14.551,0,0,1,5.794,1.159,15.414,15.414,0,0,1,4.7,3.09,14.474,14.474,0,0,1,3.154,4.506,13.031,13.031,0,0,1,1.159,5.407v61.54a14.093,14.093,0,0,1-1.159,5.729,14.809,14.809,0,0,1-3.09,4.57,14.111,14.111,0,0,1-4.506,3.026,13.684,13.684,0,0,1-5.407,1.094h-94.241ZM-41.822-95.763a14.81,14.81,0,0,1,1.094-5.729,13.932,13.932,0,0,1,3.026-4.57,14.111,14.111,0,0,1,4.506-3.026,14,14,0,0,1,5.536-1.094H54.994V-91.9H-22.768v16.608H44.695v18.282H-22.768v18.668H54.994v18.282H-27.016A14.551,14.551,0,0,1-32.81-21.22a15.414,15.414,0,0,1-4.7-3.09,14.474,14.474,0,0,1-3.154-4.506,13.031,13.031,0,0,1-1.159-5.407ZM69.156-93.7a30.194,30.194,0,0,1,.708-6.63A16.7,16.7,0,0,1,72.246-106a12.24,12.24,0,0,1,4.377-3.991,13.5,13.5,0,0,1,6.566-1.481,15.543,15.543,0,0,1,7.467,1.867,27.265,27.265,0,0,1,6.695,5.214l58.45,60.9v-66.69h18.926V-36.54a27.785,27.785,0,0,1-.772,6.63,17.715,17.715,0,0,1-2.446,5.665,12.406,12.406,0,0,1-4.313,3.991,13.124,13.124,0,0,1-6.5,1.481,15.143,15.143,0,0,1-7.725-1.867,29.874,29.874,0,0,1-6.437-5.214L88.082-86.622v66.561H69.156ZM-219.54,47.716V15.65h-42.319V47.716Zm-53.65-34.379a8.867,8.867,0,0,1,.655-3.43,8.342,8.342,0,0,1,1.811-2.736,8.449,8.449,0,0,1,2.7-1.811,8.385,8.385,0,0,1,3.315-.655h47.637A8.712,8.712,0,0,1-213.6,5.4a9.229,9.229,0,0,1,2.814,1.85,8.666,8.666,0,0,1,1.889,2.7,7.8,7.8,0,0,1,.694,3.237V50.029a8.632,8.632,0,0,1-.694,3.507,8.866,8.866,0,0,1-1.85,2.736,7.947,7.947,0,0,1-2.7,1.773,8.637,8.637,0,0,1-3.237.617h-47.637a8.712,8.712,0,0,1-3.469-.694,9.229,9.229,0,0,1-2.814-1.85,8.666,8.666,0,0,1-1.889-2.7,7.8,7.8,0,0,1-.694-3.237Zm86.718,1.233a18.079,18.079,0,0,1,.424-3.97,10,10,0,0,1,1.426-3.392A7.328,7.328,0,0,1-182,4.82a8.081,8.081,0,0,1,3.931-.886A9.306,9.306,0,0,1-173.6,5.051a16.324,16.324,0,0,1,4.008,3.122l35,36.46V4.7h11.331V48.8a16.635,16.635,0,0,1-.462,3.97,10.606,10.606,0,0,1-1.465,3.392,7.428,7.428,0,0,1-2.582,2.39,7.857,7.857,0,0,1-3.893.886,9.067,9.067,0,0,1-4.625-1.118,17.887,17.887,0,0,1-3.854-3.122l-35-36.383V58.662h-11.331Zm130.424-1.233a8.867,8.867,0,0,1,.655-3.43A8.342,8.342,0,0,1-53.58,7.171a8.449,8.449,0,0,1,2.7-1.811A8.385,8.385,0,0,1-47.568,4.7H1.919V15.65H-44.639v9.944H-4.247V36.539H-44.639V47.716H1.919V58.662h-49.1a8.712,8.712,0,0,1-3.469-.694,9.229,9.229,0,0,1-2.814-1.85,8.666,8.666,0,0,1-1.889-2.7,7.8,7.8,0,0,1-.694-3.237ZM76.536,47.716V15.65H34.217V47.716ZM22.886,13.337a8.867,8.867,0,0,1,.655-3.43,8.341,8.341,0,0,1,1.811-2.736A8.421,8.421,0,0,1,31.365,4.7H79a8.712,8.712,0,0,1,3.469.694,9.228,9.228,0,0,1,2.814,1.85,8.666,8.666,0,0,1,1.889,2.7,7.8,7.8,0,0,1,.694,3.237V50.029a8.632,8.632,0,0,1-.694,3.507,8.866,8.866,0,0,1-1.85,2.736,7.947,7.947,0,0,1-2.7,1.773,8.637,8.637,0,0,1-3.237.617H31.75a8.712,8.712,0,0,1-3.469-.694,9.229,9.229,0,0,1-2.814-1.85,8.666,8.666,0,0,1-1.889-2.7,7.8,7.8,0,0,1-.694-3.237ZM109.6,47.716h53.573V36.539H118.238a8.867,8.867,0,0,1-3.43-.655,8.341,8.341,0,0,1-2.736-1.811A8.421,8.421,0,0,1,109.6,28.06V13.337a8.867,8.867,0,0,1,.655-3.43,8.341,8.341,0,0,1,1.811-2.736A8.421,8.421,0,0,1,118.083,4.7H168.5V15.65h-47.56v9.944h44.939a8.438,8.438,0,0,1,3.43.694,8.866,8.866,0,0,1,2.736,1.85,8.448,8.448,0,0,1,1.811,2.7,8.192,8.192,0,0,1,.655,3.237V50.029a8.438,8.438,0,0,1-.694,3.43,8.866,8.866,0,0,1-1.85,2.736,8.449,8.449,0,0,1-2.7,1.811,8.193,8.193,0,0,1-3.237.655H109.6Z" transform="translate(534.687 178.904)"/>
  </g>
</svg>
