<svg xmlns="http://www.w3.org/2000/svg" width="28.522" height="34.405" viewBox="0 0 28.522 34.405">
  <g id="Path_42" data-name="Path 42" transform="translate(0 0)">
    <path id="Path_95" data-name="Path 95" d="M1433.387,152.968h-16.246a1.782,1.782,0,0,1-1.727-1.348l-4.379-17.461a1.784,1.784,0,0,1,.426-1.649l12.5-13.382a1.781,1.781,0,0,1,1.3-.565h0a1.78,1.78,0,0,1,1.3.567l12.459,13.382a1.784,1.784,0,0,1,.425,1.643l-4.336,17.461A1.78,1.78,0,0,1,1433.387,152.968Zm-14.857-3.561H1432l3.767-15.174-10.5-11.278-10.537,11.278Z" transform="translate(-1410.982 -118.563)" fill="#262626"/>
  </g>
</svg>
